<svg id="ddg" xmlns="http://www.w3.org/2000/" xmlns:xlink="http://www.w3.org/1999/xlink" viewBox="0 0 65.305 66.305" fill="#fff" fill-rule="evenodd" stroke="#000" stroke-linecap="round" stroke-linejoin="round"><use xlink:href="#B" x=".652" y=".652"/><defs><linearGradient y2="49.98%" x2="100.01%" y1="49.98%" x1="0.01%" id="A"><stop offset=".006%" stop-color="#6176b9"/><stop offset=".691%" stop-color="#394a9f"/></linearGradient></defs><symbol id="B" overflow="visible"><g stroke="none"><g fill="#de5833" fill-rule="nonzero"><path d="M3.535 32.001c0-15.77 12.696-28.466 28.466-28.466s28.466 12.696 28.466 28.466-12.696 28.466-28.466 28.466S3.535 47.771 3.535 32.001z"/><path d="M60.579 31.921c0 15.758-12.819 28.58-28.58 28.58S3.423 47.679 3.423 31.921 16.243 3.344 31.999 3.344s28.58 12.82 28.58 28.577z"/></g><path fill="#d5d7d8" d="M38.928 63.255c-2.23.488-4.548.746-6.928.746-3.04 0-5.978-.42-8.76-1.204-.036-.591-.116-1.203-.247-1.836l-6.824-32.907c-1.003-5.62.68-10.31 4.491-12.318 1.311-.689 4.36-.949 6.364-1.171-2.519-1.122-6.79-1.389-9.517-1.113-.003-.391.357-1.218.838-1.436.955-.428 2.453-.068 2.963-.413-.509-.076-3.129-1.37-3.681-1.419.593-.096.906-.479 2.293-.256 2.002.332 5.86 1.58 7.634 2.524 1.593.846 2.718 1.763 3.416 2.716 1.814.349 3.42 1.006 4.469 2.052 3.208 3.209 6.082 10.551 4.881 14.762-.334 1.172-1.651-.119-2.616.59-1.875 1.37-3.109-2.024-7.792 1.036-.602.394 1.493 5.957 1.31 6.687-1.006 4.019 1.203 10.236 3.411 14.649l4.294 8.313z"/><path d="M40.431 62.887l-4.584-8.886c-2.21-4.417-4.416-10.636-3.411-14.648.186-.723.189-3.711.796-4.107 4.675-3.058 4.348-.102 6.226-1.472.968-.707 1.744-1.562 2.08-2.734 1.204-4.214-1.673-11.553-4.882-14.765-1.046-1.046-2.653-1.704-4.465-2.051-.697-.956-1.82-1.87-3.411-2.717-3.005-1.593-6.719-2.229-10.165-1.605.556.056 1.812 1.19 2.32 1.265-.768.521-2.812.453-2.799 1.612 2.736-.274 5.734.159 8.255 1.278-2.004.223-3.871.723-5.175 1.415-3.815 2.005-4.817 6.017-3.815 11.639s5.422 26.086 6.821 32.905c.226 1.097.302 2.131.258 3.1 2.411.577 4.93.883 7.523.883 2.92 0 5.746-.387 8.431-1.113z"/><g fill-rule="nonzero"><path d="M21.81 27.401c0-1.165.942-2.108 2.115-2.108.559-.001 1.095.221 1.491.617s.617.932.616 1.491c0 1.165-.943 2.107-2.106 2.107a2.11 2.11 0 0 1-2.115-2.107z" fill="#2d4f8e"/><path d="M24.307 26.694c0-.145.057-.284.159-.387s.241-.16.386-.16c.302 0 .548.244.548.547s-.245.548-.548.548-.545-.245-.545-.548z"/><path d="M36.194 26.146a1.81 1.81 0 1 1 3.622 0 1.81 1.81 0 0 1-1.812 1.813c-1-.002-1.809-.813-1.81-1.813z" fill="#2d4f8e"/><path d="M38.341 25.543a.47.47 0 0 1 .8-.333c.088.088.138.208.137.333 0 .262-.204.469-.471.469-.124 0-.243-.05-.33-.138s-.136-.207-.136-.331z"/><g fill="url(#A)"><path d="M24.518 21.289s-1.588-.723-3.133.252-1.485 1.961-1.485 1.961-.82-1.827 1.365-2.723 3.252.51 3.252.51z"/><path d="M39.094 21.144s-1.141-.652-2.027-.641c-1.82.024-2.316.828-2.316.828s.306-1.917 2.633-1.533c1.262.21 1.71 1.346 1.71 1.346z"/></g><path d="M30.369 35.523c.211-1.28 3.506-3.687 5.843-3.833s3.061-.114 5.009-.58l8.366-2.361c1.394-.643 7.293.318 3.133 2.637-1.799 1.002-6.647 2.855-10.113 3.888-3.462 1.035-5.565-.988-6.712.712-.916 1.354-.186 3.207 3.951 3.591 5.586.518 10.941-2.515 11.531-.904s-4.8 3.622-8.083 3.686c-3.28.056-9.889-2.168-10.883-2.859s-2.318-2.298-2.042-3.978z" fill="#fdd20a"/><path d="M32.898 52.384s-7.848-4.185-7.976-2.488 0 8.626.914 9.155 7.455-3.399 7.455-3.399zm3.007-.264s5.362-4.054 6.541-3.793c1.169.267 1.437 8.626.39 9.032-1.046.39-7.184-2.122-7.184-2.122z" fill="#65bc46"/><path d="M30.998 52.833c0 2.745-.389 3.923.779 4.185s3.397 0 4.184-.522.129-4.051-.129-4.711c-.265-.653-4.839-.129-4.839 1.048z" fill="#43a244"/><path d="M31.496 52.217c0 2.745-.393 3.924.779 4.185 1.172.267 3.397 0 4.185-.522.779-.523.128-4.051-.131-4.712-.263-.653-4.837-.126-4.837 1.049z" fill="#65bc46"/></g></g><path d="M0 32C0 14.272 14.272 0 32 0s32 14.272 32 32-14.272 32-32 32S0 49.728 0 32z" stroke="#de5833" stroke-linejoin="miter" fill="none" stroke-width="1.305"/></symbol></svg>