<svg xmlns="http://www.w3.org/2000/svg" width="65" height="63" stroke="none" stroke-linecap="round" stroke-linejoin="round" fill="#fff" fill-rule="nonzero">
    <path d="M50.7544 60.7335c.2931.6071.5861 1.5062 1.2132 1.8623a2.901 2.901 0 0 0 1.4653.188h9.0815a1.49 1.49 0 0 0 1.27-.7182c.2691-.4444.2874-.9968.0482-1.4581l-1.7163-3.2436-3.4946-6.6011a3.343 3.343 0 0 1-.44-.9621s-.1261-.2001.042-.7742c.167-.418 2.2804-4.5827 2.4064-5.0008C61.4882 41.3683 71.93 16.195 42.3 13.6206c.2237.1203.4405.2531.6491.3981a21.092 21.092 0 0 1 6.3191 6.298c3.6846 5.773 4.2807 12.9942 1.6002 19.3033-.4394 1.0324-.9643 2.0264-1.5692 2.9715a20.525 20.525 0 0 1-3.7247 4.3527 2.183 2.183 0 0 0-.7741.9621c-.116.3501-.094.7322.063 1.0672z" fill="#4ba2ea" />
    <path d="M.19 27.83c4.7708-3.2435 9.5836-3.4526 11.0899 1.0252-.0164.0755-.0235.1528-.021.23C9.9416 40.3041 17.86 50.5048 29.0658 51.9891a20.436 20.436 0 0 0 5.65-.021c.4601-.063.9001-.1461 1.3602-.2301a2.733 2.733 0 0 1 1.0042-.084c.5231 6.4031-19.5653 8.0774-32.0054-7.2412C2.0203 40.6452.5351 33.0079.19 27.83" fill="#ff3b4a" />
    <path d="M62.2424 40.7922a30.254 30.254 0 0 1-1.9043 4.6668l-.4801.9201-.7321 1.2762c-.3561.4601-.6581.9582-.9002 1.4853l.02-.084c.168-.4178.3149-.8438.4401-1.2762 4.4727-13.9224-2.7235-28.9119-16.3848-34.1288-.105-.063-.188-.105-.293-.167.7951.4181-3.7666-11.0698 5.713-9.5836.398.2.7951.4401 1.1932.6701a30.115 30.115 0 0 1 7.2402 6.068c2.2739 2.6103 4.0857 5.5896 5.3569 8.8095a31.954 31.954 0 0 1 2.1343 11.0069c.102 3.5005-.372 7.0011-1.4022 10.3367z" fill="#65cee7" />
    <path d="M50.2524 8.5667a5.701 5.701 0 0 1-.3981 2.0714c-.8553 2.1175-2.9071 3.507-5.1909 3.5156-.9271-.003-1.8403-.2331-2.6574-.6702a21.014 21.014 0 0 0-8.3714-2.5944c-3.6574-.339-7.3383.3192-10.6518 1.9043a20.115 20.115 0 0 0-4.4778 2.8665c-1.2777 1.0703-2.4197 2.2929-3.4005 3.6406-1.8883 2.6004-3.1546 5.601-3.7036 8.7675C1.1991 15.5959 22.1357-4.4915 45.6136 3.0638c.3981.105.8161.23 1.2132.3561.293.146.6071.293.9001.46h.02a5.621 5.621 0 0 1 2.5115 4.6868z" fill="#87c966" />
    <path d="M46.6958 3.3559c-.3534-.1293-.7175-.2274-1.0882-.2931-1.7787-.4825-3.6016-.7841-5.4409-.9001-.5441-.042-1.0882-.042-1.6533-.042C24.014 2.1887 12.092 13.5876 11.3949 28.07c-.0228.0962-.0368.1944-.042.2931l-.063.4801c-.4981 2.6464-2.8005 4.5637-5.503 4.5607h-.166C2.5994 33.3173.1961 30.8408.2 27.818c0-.2501.02-.4801.042-.7001a30.998 30.998 0 0 1 2.8035-9.5206c1.5586-3.2925 3.7079-6.2713 6.341-8.7885a32.169 32.169 0 0 1 8.9555-6.047C21.6856 1.2773 25.2604.3813 28.9088.1133c2.0964-.164 4.2037-.15 6.2971.0421 1.4732.1247 2.9352.3587 4.3737.7001 2.4622.5535 4.8502 1.3965 7.1142 2.5114z" fill="#ffda12" />
    <path d="M41.6939 60.6915c-.293.8371-1.1502.9832-1.9253 1.1722-.9202.23-1.8403.3981-2.7834.5441-1.6954.25-3.4006.3561-5.1059.4401-1.7852.056-3.5717-.0562-5.3359-.3351-1.8654-.272-3.7047-.6921-5.5029-1.2552-4.3408-1.3822-8.3095-3.7286-11.6019-6.8631-1.7382-1.6503-3.27-3.5052-4.5619-5.524-1.9325-3.0203-3.3207-6.3559-4.1016-9.8556A35.849 35.849 0 0 1 .1889 27.925v-.084c.7677 13.5706 11.4816 24.4668 25.0372 25.4633a25.787 25.787 0 0 0 2.2185.084c3.2875.008 6.548-.5801 9.6255-1.7363a.53.53 0 0 1 .146.042c.4051.1272.7341.4255.9002.8161l2.0504 4.1007c.0199.042.0421.105.063.146l1.0461 2.0924c.3142.5861.6701 1.1502.4181 1.8403z" fill="#af27cc" />
</svg>